<svg width="29" height="30" viewBox="0 0 29 30" fill="none" xmlns="http://www.w3.org/2000/svg">
<path d="M24.3188 1.10346C26.4777 0.526247 28.475 2.4549 27.9764 4.63536L24.3693 20.4106C24.0014 22.0191 22.3942 23.0191 20.7905 22.6372L14.7719 21.2039C11.6149 20.4521 9.11679 18.0399 8.25263 14.9088L6.60517 8.93963C6.1662 7.34909 7.10669 5.70532 8.69932 5.27951L24.3188 1.10346Z" stroke="white"/>
<path d="M0.894939 26.4382C0.66559 27.9548 2.00045 29.2442 3.50635 28.9606L19.8289 25.8874C20.2222 25.8133 20.2356 25.2544 19.8464 25.1614L12.6021 23.4326C9.44754 22.6798 6.95169 20.2692 6.08746 17.1404L4.10435 9.96096C3.9977 9.57485 3.44012 9.60825 3.38022 10.0043L0.894939 26.4382Z" stroke="white"/>
</svg>
