<svg width="29" height="28" viewBox="0 0 29 28" fill="none" xmlns="http://www.w3.org/2000/svg">
<path d="M24.3188 0.103462C26.4777 -0.473753 28.475 1.4549 27.9764 3.63536L24.3693 19.4106C24.0014 21.0191 22.3942 22.0191 20.7905 21.6372L14.7719 20.2039C11.6149 19.4521 9.11679 17.0399 8.25263 13.9088L6.60517 7.93963C6.1662 6.34909 7.10669 4.70532 8.69932 4.27951L24.3188 0.103462Z" fill="#7E858F"/>
<path d="M0.894939 25.4382C0.66559 26.9548 2.00045 28.2442 3.50635 27.9606L19.8289 24.8874C20.2222 24.8133 20.2356 24.2544 19.8464 24.1614L12.6021 22.4326C9.44754 21.6798 6.95169 19.2692 6.08746 16.1404L4.10435 8.96096C3.9977 8.57485 3.44012 8.60825 3.38022 9.00433L0.894939 25.4382Z" fill="#7E858F"/>
</svg>
