<svg width="421" height="240" viewBox="0 0 421 240" fill="none" xmlns="http://www.w3.org/2000/svg">
<line x1="35.5" y1="122.5" x2="386.5" y2="122.5" stroke="white" stroke-width="3" stroke-linecap="round" stroke-dasharray="0.1 6"/>
<line x1="273.245" y1="121.893" x2="385.893" y2="32.7545" stroke="white" stroke-width="3" stroke-linecap="round" stroke-dasharray="0.1 6"/>
<line x1="275.093" y1="123.653" x2="388.653" y2="204.907" stroke="white" stroke-width="3" stroke-linecap="round" stroke-dasharray="0.1 6"/>
<circle cx="32" cy="32" r="32.5" transform="matrix(-1 0 0 1 65 88)" fill="#171B21" stroke="#31363C"/>
<g clip-path="url(#clip0_2_63)">
<path fill-rule="evenodd" clip-rule="evenodd" d="M32.9047 88C15.2622 88 1 102.367 1 120.142C1 134.35 10.1383 146.376 22.8155 150.633C24.4005 150.953 24.9811 149.942 24.9811 149.091C24.9811 148.345 24.9288 145.791 24.9288 143.13C16.0537 145.046 14.2056 139.299 14.2056 139.299C12.7793 135.574 10.666 134.616 10.666 134.616C7.76114 132.647 10.8776 132.647 10.8776 132.647C14.0998 132.86 15.7905 135.946 15.7905 135.946C18.6425 140.842 23.238 139.459 25.0869 138.607C25.3507 136.532 26.1964 135.095 27.0944 134.297C20.0158 133.552 12.5683 130.785 12.5683 118.439C12.5683 114.926 13.8353 112.053 15.8428 109.818C15.526 109.02 14.4165 105.72 16.1602 101.304C16.1602 101.304 18.854 100.452 24.9282 104.603C27.5287 103.899 30.2106 103.541 32.9047 103.538C35.5985 103.538 38.3447 103.911 40.8805 104.603C46.9553 100.452 49.6491 101.304 49.6491 101.304C51.3928 105.72 50.2826 109.02 49.9659 109.818C52.0263 112.053 53.241 114.926 53.241 118.439C53.241 130.785 45.7935 133.498 38.662 134.297C39.8245 135.308 40.8276 137.223 40.8276 140.257C40.8276 144.567 40.7753 148.026 40.7753 149.09C40.7753 149.942 41.3566 150.953 42.9409 150.634C55.6181 146.376 64.7564 134.35 64.7564 120.142C64.8087 102.367 50.4942 88 32.9047 88Z" fill="white"/>
</g>
<circle cx="32" cy="32" r="32.5" transform="matrix(-1 0 0 1 190 88)" fill="#171B21" stroke="#31363C"/>
<path d="M143.321 119.899H146.937C148.017 119.899 148.892 120.802 148.892 121.915V127.325C148.892 128.439 149.767 129.341 150.847 129.341H165.234C166.314 129.341 167.189 130.243 167.189 131.356V135.084C167.189 136.197 166.314 137.099 165.234 137.099H150.015C148.934 137.099 148.072 136.197 148.072 135.084V132.093C148.072 130.98 147.197 130.19 146.117 130.19H143.321C142.241 130.19 141.366 129.288 141.366 128.175V121.891C141.366 120.778 142.241 119.899 143.321 119.899Z" fill="white"/>
<path d="M167.19 112.494C167.19 111.381 166.315 110.478 165.235 110.478H150.857C149.777 110.478 148.901 109.576 148.901 108.463V104.735C148.901 103.622 149.777 102.72 150.857 102.72H166.068C167.148 102.72 168.023 103.622 168.023 104.735V107.608C168.023 108.721 168.898 109.623 169.979 109.623H172.761C173.841 109.623 174.717 110.525 174.717 111.639V117.928C174.717 119.042 173.838 119.899 172.758 119.899H169.141C168.061 119.899 167.186 118.997 167.186 117.883L167.19 112.494Z" fill="white"/>
<path d="M159.743 115.981H156.269C155.137 115.981 154.219 116.928 154.219 118.094V121.675C154.219 122.842 155.138 123.788 156.269 123.788H159.743C160.875 123.788 161.793 122.841 161.793 121.675V118.094C161.793 116.928 160.874 115.981 159.743 115.981Z" fill="white"/>
<path d="M388 152.5C405.949 152.5 420.5 137.949 420.5 120C420.5 102.051 405.949 87.5 388 87.5C370.051 87.5 355.5 102.051 355.5 120C355.5 137.949 370.051 152.5 388 152.5Z" fill="#171B21" stroke="#31363C"/>
<path d="M378.673 128.505C376.768 128.505 375.207 128.057 373.99 127.16C372.789 126.247 372.188 124.951 372.188 123.269C372.188 122.917 372.228 122.485 372.308 121.972C372.517 120.819 372.813 119.434 373.197 117.817C374.286 113.414 377.096 111.212 381.627 111.212C382.86 111.212 383.965 111.421 384.942 111.837C385.918 112.237 386.687 112.846 387.247 113.662C387.808 114.463 388.088 115.423 388.088 116.544C388.088 116.88 388.048 117.305 387.968 117.817C387.728 119.242 387.439 120.627 387.103 121.972C386.543 124.166 385.574 125.807 384.197 126.896C382.82 127.969 380.979 128.505 378.673 128.505ZM379.009 125.047C379.906 125.047 380.667 124.782 381.291 124.254C381.932 123.726 382.388 122.917 382.66 121.828C383.028 120.323 383.309 119.01 383.501 117.889C383.565 117.553 383.597 117.209 383.597 116.856C383.597 115.399 382.836 114.671 381.315 114.671C380.418 114.671 379.65 114.935 379.009 115.463C378.385 115.992 377.937 116.8 377.664 117.889C377.376 118.962 377.088 120.275 376.8 121.828C376.736 122.148 376.704 122.485 376.704 122.837C376.704 124.31 377.472 125.047 379.009 125.047Z" fill="white"/>
<path d="M389.191 128.265C389.015 128.265 388.878 128.209 388.782 128.097C388.702 127.969 388.678 127.825 388.71 127.665L392.025 112.053C392.057 111.877 392.145 111.733 392.289 111.621C392.433 111.509 392.585 111.453 392.745 111.453H399.134C400.911 111.453 402.336 111.821 403.409 112.557C404.498 113.294 405.042 114.359 405.042 115.752C405.042 116.152 404.994 116.568 404.898 117.001C404.498 118.842 403.689 120.203 402.473 121.084C401.272 121.964 399.622 122.405 397.525 122.405H394.282L393.178 127.665C393.146 127.841 393.058 127.985 392.914 128.097C392.769 128.209 392.617 128.265 392.457 128.265H389.191ZM397.693 119.09C398.365 119.09 398.95 118.906 399.446 118.538C399.959 118.169 400.295 117.641 400.455 116.953C400.503 116.68 400.527 116.44 400.527 116.232C400.527 115.768 400.391 115.415 400.119 115.175C399.847 114.919 399.382 114.791 398.726 114.791H395.844L394.931 119.09H397.693Z" fill="white"/>
<circle cx="32" cy="32" r="32.5" transform="matrix(-1 0 0 1 420 175)" fill="#171B21" stroke="#31363C"/>
<path fill-rule="evenodd" clip-rule="evenodd" d="M406 207C406 216.941 397.927 225 387.969 225C378.521 225 370.77 217.746 370 208.513H393.833V205.487H370C370.77 196.254 378.521 189 387.969 189C397.927 189 406 197.059 406 207Z" fill="white"/>
<circle cx="32" cy="32" r="32.5" transform="matrix(-1 0 0 1 420 1)" fill="#171B21" stroke="#31363C"/>
<g clip-path="url(#clip1_2_63)">
<path d="M387.996 11L387.712 11.9796V40.4058L387.996 40.6935L400.992 32.8939L387.996 11Z" fill="#B3B3B3"/>
<path d="M387.996 11L375 32.8939L387.996 40.6936V26.8964V11Z" fill="#F2F2F2"/>
<path d="M387.996 43.1919L387.836 43.3899V53.5159L387.996 53.9904L401 35.3962L387.996 43.1919Z" fill="#BDBDBA"/>
<path d="M387.996 53.9902V43.1918L375 35.3961L387.996 53.9902Z" fill="#F2F2F2"/>
<path d="M387.996 40.6935L400.992 32.894L387.996 26.8965V40.6935Z" fill="#949494"/>
<path d="M375 32.894L387.996 40.6935V26.8965L375 32.894Z" fill="#D1D1D1"/>
</g>
<circle cx="32" cy="32" r="32.5" transform="matrix(-1 0 0 1 305 88)" fill="#171B21" stroke="#31363C"/>
<path d="M284.604 103.122C287.145 102.442 289.496 104.715 288.909 107.285L284.663 125.877C284.23 127.773 282.338 128.951 280.45 128.501L273.366 126.812C269.649 125.926 266.709 123.083 265.691 119.393L263.752 112.357C263.235 110.483 264.342 108.546 266.217 108.044L284.604 103.122Z" fill="white"/>
<path d="M257.03 132.981C256.76 134.768 258.332 136.288 260.104 135.954L279.318 132.332C279.781 132.244 279.797 131.585 279.339 131.476L270.811 129.438C267.098 128.551 264.16 125.71 263.143 122.023L260.808 113.561C260.683 113.106 260.026 113.145 259.956 113.612L257.03 132.981Z" fill="white"/>
<defs>
<clipPath id="clip0_2_63">
<rect width="64" height="62.6939" fill="white" transform="translate(1 88)"/>
</clipPath>
<clipPath id="clip1_2_63">
<rect width="26" height="43" fill="white" transform="translate(375 11)"/>
</clipPath>
</defs>
</svg>
