<svg width="173" height="34" viewBox="0 0 173 34" fill="none" xmlns="http://www.w3.org/2000/svg">
<path d="M50.0192 29.416C48.5259 29.416 47.1392 29.0426 45.8592 28.296C44.6005 27.528 43.5979 26.504 42.8512 25.224C42.1045 23.9226 41.7312 22.504 41.7312 20.968V14.152C41.7312 12.616 42.1045 11.208 42.8512 9.92798C43.5979 8.62665 44.6005 7.60265 45.8592 6.85598C47.1392 6.08798 48.5259 5.70398 50.0192 5.70398C51.3205 5.70398 52.5365 5.94931 53.6672 6.43998C54.7979 6.90931 55.7579 7.60265 56.5472 8.51998C56.6752 8.66931 56.7392 8.85065 56.7392 9.06398C56.7392 9.27731 56.6539 9.49065 56.4832 9.70398L55.0752 11.176C54.9045 11.3466 54.7339 11.432 54.5632 11.432C54.3499 11.432 54.1579 11.336 53.9872 11.144C52.9632 10.0133 51.6512 9.44798 50.0512 9.44798C49.2619 9.44798 48.5259 9.66131 47.8432 10.088C47.1819 10.5146 46.6485 11.0906 46.2432 11.816C45.8379 12.5413 45.6352 13.32 45.6352 14.152V20.968C45.6352 21.8 45.8379 22.5786 46.2432 23.304C46.6485 24.0293 47.1819 24.6053 47.8432 25.032C48.5259 25.4586 49.2619 25.672 50.0512 25.672C51.6512 25.672 52.9632 25.1066 53.9872 23.976C54.1579 23.784 54.3392 23.688 54.5312 23.688C54.7232 23.688 54.9045 23.7733 55.0752 23.944L56.4832 25.416C56.6752 25.608 56.7712 25.8213 56.7712 26.056C56.7712 26.2266 56.7072 26.3973 56.5792 26.568C55.7685 27.4853 54.7979 28.1893 53.6672 28.68C52.5365 29.1706 51.3205 29.416 50.0192 29.416Z" fill="white"/>
<path d="M62.0135 29C61.8001 29 61.6188 28.936 61.4695 28.808C61.3201 28.6586 61.2455 28.4773 61.2455 28.264C61.2455 28.1573 61.2561 28.072 61.2775 28.008L68.2215 6.66398C68.2855 6.45065 68.4028 6.27998 68.5735 6.15198C68.7655 6.02398 68.9788 5.95998 69.2135 5.95998H71.7095C71.9441 5.95998 72.1468 6.02398 72.3175 6.15198C72.5095 6.27998 72.6375 6.45065 72.7015 6.66398L79.6455 28.008C79.6668 28.072 79.6775 28.1573 79.6775 28.264C79.6775 28.4773 79.6028 28.6586 79.4535 28.808C79.3041 28.936 79.1228 29 78.9095 29H76.6055C76.3708 29 76.1575 28.936 75.9655 28.808C75.7948 28.6586 75.6775 28.4773 75.6135 28.264L74.1735 23.656H66.6855L65.2455 28.264C65.1815 28.4773 65.0535 28.6586 64.8615 28.808C64.6908 28.936 64.4881 29 64.2535 29H62.0135ZM73.0535 20.04L70.4295 11.496L67.8055 20.04H73.0535Z" fill="white"/>
<path d="M85.5847 29C85.3927 29 85.2327 28.936 85.1047 28.808C84.9767 28.68 84.9127 28.52 84.9127 28.328V7.04798C84.9127 6.79198 84.998 6.57865 85.1687 6.40798C85.3607 6.21598 85.5847 6.11998 85.8407 6.11998H88.4647C88.8274 6.11998 89.1154 6.27998 89.3287 6.59998L97.0087 19.592L98.5447 22.28V6.79198C98.5447 6.59998 98.6087 6.43998 98.7367 6.31198C98.8647 6.18398 99.0247 6.11998 99.2167 6.11998H101.521C101.713 6.11998 101.873 6.18398 102.001 6.31198C102.129 6.43998 102.193 6.59998 102.193 6.79198V28.072C102.193 28.328 102.097 28.552 101.905 28.744C101.734 28.9146 101.521 29 101.265 29H98.6087C98.246 29 97.958 28.84 97.7447 28.52L89.8087 15.08L88.5607 12.904V28.328C88.5607 28.5413 88.4967 28.712 88.3687 28.84C88.2407 28.9466 88.0807 29 87.8887 29H85.5847Z" fill="white"/>
<path d="M109.56 29C109.368 29 109.208 28.936 109.08 28.808C108.952 28.68 108.888 28.52 108.888 28.328V7.04798C108.888 6.79198 108.973 6.57865 109.144 6.40798C109.336 6.21598 109.56 6.11998 109.816 6.11998H112.44C112.802 6.11998 113.09 6.27998 113.304 6.59998L120.984 19.592L122.52 22.28V6.79198C122.52 6.59998 122.584 6.43998 122.712 6.31198C122.84 6.18398 123 6.11998 123.192 6.11998H125.496C125.688 6.11998 125.848 6.18398 125.976 6.31198C126.104 6.43998 126.168 6.59998 126.168 6.79198V28.072C126.168 28.328 126.072 28.552 125.88 28.744C125.709 28.9146 125.496 29 125.24 29H122.584C122.221 29 121.933 28.84 121.72 28.52L113.784 15.08L112.536 12.904V28.328C112.536 28.5413 112.472 28.712 112.344 28.84C112.216 28.9466 112.056 29 111.864 29H109.56Z" fill="white"/>
<path d="M140.955 29.416C139.419 29.416 138 29.0426 136.699 28.296C135.398 27.528 134.363 26.504 133.595 25.224C132.848 23.9226 132.475 22.504 132.475 20.968V14.152C132.475 12.616 132.848 11.208 133.595 9.92798C134.363 8.62665 135.398 7.60265 136.699 6.85598C138 6.08798 139.419 5.70398 140.955 5.70398C142.491 5.70398 143.91 6.08798 145.211 6.85598C146.512 7.60265 147.536 8.62665 148.283 9.92798C149.051 11.208 149.435 12.616 149.435 14.152V20.968C149.435 22.504 149.051 23.9226 148.283 25.224C147.536 26.504 146.512 27.528 145.211 28.296C143.91 29.0426 142.491 29.416 140.955 29.416ZM140.955 25.672C141.766 25.672 142.523 25.4586 143.227 25.032C143.931 24.6053 144.486 24.0293 144.891 23.304C145.318 22.5786 145.531 21.8 145.531 20.968V14.152C145.531 13.32 145.318 12.5413 144.891 11.816C144.486 11.0906 143.931 10.5146 143.227 10.088C142.523 9.66131 141.766 9.44798 140.955 9.44798C140.144 9.44798 139.387 9.66131 138.683 10.088C137.979 10.5146 137.414 11.0906 136.987 11.816C136.582 12.5413 136.379 13.32 136.379 14.152V20.968C136.379 21.8 136.582 22.5786 136.987 23.304C137.414 24.0293 137.979 24.6053 138.683 25.032C139.387 25.4586 140.144 25.672 140.955 25.672Z" fill="white"/>
<path d="M156.228 29C156.036 29 155.876 28.936 155.748 28.808C155.62 28.68 155.556 28.52 155.556 28.328V7.04798C155.556 6.79198 155.642 6.57865 155.812 6.40798C156.004 6.21598 156.228 6.11998 156.484 6.11998H159.108C159.471 6.11998 159.759 6.27998 159.972 6.59998L167.652 19.592L169.188 22.28V6.79198C169.188 6.59998 169.252 6.43998 169.38 6.31198C169.508 6.18398 169.668 6.11998 169.86 6.11998H172.164C172.356 6.11998 172.516 6.18398 172.644 6.31198C172.772 6.43998 172.836 6.59998 172.836 6.79198V28.072C172.836 28.328 172.74 28.552 172.548 28.744C172.378 28.9146 172.164 29 171.908 29H169.252C168.89 29 168.602 28.84 168.388 28.52L160.452 15.08L159.204 12.904V28.328C159.204 28.5413 159.14 28.712 159.012 28.84C158.884 28.9466 158.724 29 158.532 29H156.228Z" fill="white"/>
<path d="M25.7686 0.869421C28.141 0.192273 30.3359 2.45483 29.788 5.0128L25.8241 23.5192C25.4199 25.4062 23.6538 26.5793 21.8914 26.1312L15.2776 24.4498C11.8084 23.5679 9.06328 20.7381 8.11366 17.0649L6.30328 10.0623C5.82089 8.19635 6.85439 6.26799 8.60453 5.76846L25.7686 0.869421Z" fill="#7E858F"/>
<path d="M0.02835 30.5904C-0.22368 32.3695 1.24318 33.8821 2.89801 33.5495L20.8347 29.9442C21.2669 29.8573 21.2817 29.2015 20.8539 29.0925L12.8932 27.0644C9.42673 26.1813 6.68407 23.3533 5.73437 19.6828L3.55515 11.2604C3.43795 10.8075 2.82523 10.8466 2.75941 11.3113L0.02835 30.5904Z" fill="#7E858F"/>
</svg>
