<svg width="62" height="62" viewBox="0 0 62 62" fill="none" xmlns="http://www.w3.org/2000/svg">
<path d="M42.1984 15.1439C44.7336 14.4668 47.0791 16.7293 46.4936 19.2873L42.2577 37.7937C41.8258 39.6807 39.9384 40.8538 38.0552 40.4057L30.9874 38.7243C27.2801 37.8424 24.3466 35.0126 23.3318 31.3394L21.3972 24.3367C20.8817 22.4708 21.9861 20.5425 23.8564 20.043L42.1984 15.1439Z" fill="#7E858F"/>
<path d="M14.6917 44.8648C14.4224 46.6439 15.9899 48.1565 17.7583 47.8239L36.926 44.2186C37.3878 44.1317 37.4036 43.476 36.9465 43.367L28.4394 41.3389C24.7351 40.4557 21.8042 37.6277 20.7893 33.9572L18.4605 25.5348C18.3353 25.0819 17.6805 25.1211 17.6102 25.5857L14.6917 44.8648Z" fill="#7E858F"/>
</svg>
