<svg width="243" height="45" viewBox="0 0 243 45" fill="none" xmlns="http://www.w3.org/2000/svg">
<path d="M74.1594 39.2736C72.1064 39.2736 70.2002 38.7622 68.4405 37.7393C66.7102 36.6871 65.3318 35.2843 64.3053 33.5307C63.2789 31.7479 62.7656 29.8044 62.7656 27.7002V18.3625C62.7656 16.2582 63.2789 14.3293 64.3053 12.5758C65.3318 10.793 66.7102 9.39017 68.4405 8.36726C70.2002 7.31513 72.1064 6.78906 74.1594 6.78906C75.9484 6.78906 77.62 7.12516 79.1744 7.79736C80.7287 8.44032 82.0485 9.39016 83.1336 10.6469C83.3096 10.8515 83.3975 11.0999 83.3975 11.3921C83.3975 11.6844 83.2802 11.9767 83.0456 12.2689L81.11 14.2855C80.8754 14.5193 80.6408 14.6362 80.4061 14.6362C80.1129 14.6362 79.8489 14.5047 79.6143 14.2417C78.2066 12.6927 76.4029 11.9182 74.2034 11.9182C73.1182 11.9182 72.1064 12.2105 71.168 12.795C70.2588 13.3795 69.5256 14.1686 68.9684 15.1623C68.4112 16.156 68.1326 17.2227 68.1326 18.3625V27.7002C68.1326 28.84 68.4112 29.9067 68.9684 30.9004C69.5256 31.8941 70.2588 32.6832 71.168 33.2677C72.1064 33.8522 73.1182 34.1445 74.2034 34.1445C76.4029 34.1445 78.2066 33.37 79.6143 31.821C79.8489 31.558 80.0982 31.4265 80.3621 31.4265C80.6261 31.4265 80.8754 31.5434 81.11 31.7772L83.0456 33.7938C83.3096 34.0568 83.4415 34.3491 83.4415 34.6705C83.4415 34.9043 83.3536 35.1381 83.1776 35.372C82.0631 36.6287 80.7287 37.5931 79.1744 38.2653C77.62 38.9375 75.9484 39.2736 74.1594 39.2736Z" fill="white"/>
<path d="M90.6482 38.7037C90.3549 38.7037 90.1056 38.616 89.9004 38.4407C89.6951 38.2361 89.5924 37.9877 89.5924 37.6954C89.5924 37.5493 89.6071 37.4324 89.6364 37.3447L99.1825 8.10423C99.2705 7.81197 99.4318 7.57816 99.6664 7.40281C99.9304 7.22745 100.224 7.13977 100.546 7.13977H103.978C104.3 7.13977 104.579 7.22745 104.813 7.40281C105.077 7.57816 105.253 7.81197 105.341 8.10423L114.887 37.3447C114.917 37.4324 114.931 37.5493 114.931 37.6954C114.931 37.9877 114.829 38.2361 114.623 38.4407C114.418 38.616 114.169 38.7037 113.876 38.7037H110.708C110.386 38.7037 110.092 38.616 109.828 38.4407C109.594 38.2361 109.432 37.9877 109.345 37.6954L107.365 31.3826H97.0709L95.0913 37.6954C95.0033 37.9877 94.8274 38.2361 94.5634 38.4407C94.3288 38.616 94.0502 38.7037 93.7276 38.7037H90.6482ZM105.825 26.4288L102.218 14.7239L98.6106 26.4288H105.825Z" fill="white"/>
<path d="M123.052 38.7037C122.788 38.7037 122.568 38.616 122.392 38.4407C122.216 38.2653 122.128 38.0461 122.128 37.7831V8.63029C122.128 8.27958 122.246 7.98732 122.48 7.75352C122.744 7.49048 123.052 7.35897 123.404 7.35897H127.011C127.51 7.35897 127.906 7.57816 128.199 8.01655L138.757 25.8151L140.869 29.4976V8.27958C140.869 8.01655 140.957 7.79736 141.133 7.622C141.309 7.44664 141.529 7.35897 141.793 7.35897H144.96C145.224 7.35897 145.444 7.44664 145.62 7.622C145.796 7.79736 145.884 8.01655 145.884 8.27958V37.4324C145.884 37.7831 145.752 38.09 145.488 38.353C145.253 38.5868 144.96 38.7037 144.608 38.7037H140.957C140.458 38.7037 140.062 38.4845 139.769 38.0461L128.859 19.6338L127.143 16.6528V37.7831C127.143 38.0753 127.055 38.3092 126.88 38.4845C126.704 38.6306 126.484 38.7037 126.22 38.7037H123.052Z" fill="white"/>
<path d="M156.011 38.7037C155.747 38.7037 155.527 38.616 155.352 38.4407C155.176 38.2653 155.088 38.0461 155.088 37.7831V8.63029C155.088 8.27958 155.205 7.98732 155.439 7.75352C155.703 7.49048 156.011 7.35897 156.363 7.35897H159.971C160.469 7.35897 160.865 7.57816 161.158 8.01655L171.716 25.8151L173.828 29.4976V8.27958C173.828 8.01655 173.916 7.79736 174.092 7.622C174.268 7.44664 174.488 7.35897 174.752 7.35897H177.919C178.183 7.35897 178.403 7.44664 178.579 7.622C178.755 7.79736 178.843 8.01655 178.843 8.27958V37.4324C178.843 37.7831 178.711 38.09 178.447 38.353C178.212 38.5868 177.919 38.7037 177.567 38.7037H173.916C173.417 38.7037 173.021 38.4845 172.728 38.0461L161.818 19.6338L160.103 16.6528V37.7831C160.103 38.0753 160.015 38.3092 159.839 38.4845C159.663 38.6306 159.443 38.7037 159.179 38.7037H156.011Z" fill="white"/>
<path d="M199.171 39.2736C197.06 39.2736 195.109 38.7622 193.32 37.7393C191.531 36.6871 190.109 35.2843 189.053 33.5307C188.027 31.7479 187.514 29.8044 187.514 27.7002V18.3625C187.514 16.2582 188.027 14.3293 189.053 12.5758C190.109 10.793 191.531 9.39017 193.32 8.36726C195.109 7.31513 197.06 6.78906 199.171 6.78906C201.283 6.78906 203.233 7.31513 205.022 8.36726C206.811 9.39017 208.219 10.793 209.245 12.5758C210.301 14.3293 210.829 16.2582 210.829 18.3625V27.7002C210.829 29.8044 210.301 31.7479 209.245 33.5307C208.219 35.2843 206.811 36.6871 205.022 37.7393C203.233 38.7622 201.283 39.2736 199.171 39.2736ZM199.171 34.1445C200.286 34.1445 201.327 33.8522 202.295 33.2677C203.262 32.6832 204.025 31.8941 204.582 30.9004C205.169 29.9067 205.462 28.84 205.462 27.7002V18.3625C205.462 17.2227 205.169 16.156 204.582 15.1623C204.025 14.1686 203.262 13.3795 202.295 12.795C201.327 12.2105 200.286 11.9182 199.171 11.9182C198.057 11.9182 197.016 12.2105 196.048 12.795C195.08 13.3795 194.303 14.1686 193.716 15.1623C193.159 16.156 192.881 17.2227 192.881 18.3625V27.7002C192.881 28.84 193.159 29.9067 193.716 30.9004C194.303 31.8941 195.08 32.6832 196.048 33.2677C197.016 33.8522 198.057 34.1445 199.171 34.1445Z" fill="white"/>
<path d="M220.168 38.7037C219.904 38.7037 219.684 38.616 219.508 38.4407C219.332 38.2653 219.244 38.0461 219.244 37.7831V8.63029C219.244 8.27958 219.362 7.98732 219.596 7.75352C219.86 7.49048 220.168 7.35897 220.52 7.35897H224.127C224.626 7.35897 225.022 7.57816 225.315 8.01655L235.873 25.8151L237.985 29.4976V8.27958C237.985 8.01655 238.073 7.79736 238.249 7.622C238.425 7.44664 238.645 7.35897 238.909 7.35897H242.076C242.34 7.35897 242.56 7.44664 242.736 7.622C242.912 7.79736 243 8.01655 243 8.27958V37.4324C243 37.7831 242.868 38.09 242.604 38.353C242.369 38.5868 242.076 38.7037 241.724 38.7037H238.073C237.574 38.7037 237.178 38.4845 236.885 38.0461L225.975 19.6338L224.259 16.6528V37.7831C224.259 38.0753 224.171 38.3092 223.995 38.4845C223.819 38.6306 223.6 38.7037 223.336 38.7037H220.168Z" fill="white"/>
<path fill-rule="evenodd" clip-rule="evenodd" d="M10.5826 37.0153C3.37713 29.8642 4.25079 18.5544 11.321 12.3605C12.5394 24.9563 22.574 34.9972 35.2506 36.4752C28.9738 43.3147 17.7215 44.1004 10.5826 37.0153ZM38.4361 31.4467C38.0328 32.4265 37.5529 33.3431 37.0071 34.1941C24.2652 33.4555 14.1046 23.2666 13.6564 10.6466C14.4481 10.164 15.2943 9.73635 16.1936 9.37177L26.5257 5.18274C31.1376 3.3129 36.4296 4.37092 39.9523 7.86707C43.475 11.3632 44.541 16.6153 42.657 21.1924L38.4361 31.4467ZM29.5222 7.80625C29.5222 7.80625 29.6889 12.3153 32.594 15.1985C35.4991 18.0817 40.0424 18.2471 40.0424 18.2471C40.0424 18.2471 40.2597 13.3569 37.3547 10.4738C34.4496 7.59061 29.5222 7.80625 29.5222 7.80625Z" fill="white"/>
</svg>