<svg width="256" height="36" viewBox="0 0 256 36" fill="none" xmlns="http://www.w3.org/2000/svg">
<path d="M13.688 35.48C11.672 35.48 9.8 35.208 8.072 34.664C6.344 34.12 4.888 33.304 3.704 32.216C2.52 31.128 1.672 29.768 1.16 28.136C0.68 26.504 0.616 24.6 0.968 22.424C1.224 21.048 1.496 19.672 1.784 18.296C2.104 16.92 2.424 15.528 2.744 14.12C3.8 9.8 5.704 6.52 8.456 4.28C11.208 2.04 14.92 0.919998 19.592 0.919998C21.608 0.919998 23.464 1.208 25.16 1.784C26.888 2.328 28.344 3.16 29.528 4.28C30.744 5.4 31.592 6.776 32.072 8.408C32.584 10.04 32.648 11.944 32.264 14.12C32.04 15.528 31.768 16.92 31.448 18.296C31.16 19.672 30.856 21.048 30.536 22.424C29.448 26.808 27.528 30.088 24.776 32.264C22.024 34.408 18.328 35.48 13.688 35.48ZM14.312 28.568C16.04 28.568 17.56 28.056 18.872 27.032C20.184 26.008 21.112 24.376 21.656 22.136C22.008 20.728 22.312 19.4 22.568 18.152C22.856 16.904 23.112 15.608 23.336 14.264C23.752 12.024 23.56 10.392 22.76 9.368C21.96 8.344 20.696 7.832 18.968 7.832C17.24 7.832 15.72 8.344 14.408 9.368C13.128 10.392 12.216 12.024 11.672 14.264C11.32 15.608 11 16.904 10.712 18.152C10.456 19.4 10.2 20.728 9.944 22.136C9.56 24.376 9.752 26.008 10.52 27.032C11.288 28.056 12.552 28.568 14.312 28.568ZM37.3479 35C37.0279 35 36.7719 34.888 36.5799 34.664C36.3879 34.44 36.3239 34.152 36.3879 33.8L43.0119 2.6C43.0759 2.248 43.2519 1.96 43.5399 1.736C43.8279 1.512 44.1319 1.4 44.4519 1.4H57.2199C59.1719 1.4 60.9319 1.624 62.4999 2.072C64.0999 2.52 65.4279 3.208 66.4839 4.136C67.5399 5.064 68.2759 6.232 68.6919 7.64C69.1079 9.016 69.1239 10.632 68.7399 12.488C67.9399 16.168 66.3079 18.888 63.8439 20.648C61.4119 22.408 58.1319 23.288 54.0039 23.288H47.5239L45.3159 33.8C45.2519 34.152 45.0759 34.44 44.7879 34.664C44.5319 34.888 44.2279 35 43.8759 35H37.3479ZM48.7719 16.664H54.2919C55.6039 16.664 56.7719 16.312 57.7959 15.608C58.8519 14.904 59.5399 13.832 59.8599 12.392C60.0199 11.56 60.0519 10.824 59.9559 10.184C59.8599 9.544 59.5239 9.032 58.9479 8.648C58.4039 8.264 57.5559 8.072 56.4039 8.072H50.6439L48.7719 16.664ZM77.6094 35C77.2574 35 76.9854 34.888 76.7934 34.664C76.6014 34.44 76.5374 34.152 76.6014 33.8L81.9294 8.936H73.3854C73.0654 8.936 72.8094 8.824 72.6174 8.6C72.4254 8.344 72.3614 8.056 72.4254 7.736L73.5294 2.6C73.5934 2.248 73.7534 1.96 74.0094 1.736C74.2974 1.512 74.6174 1.4 74.9694 1.4H100.793C101.145 1.4 101.401 1.512 101.561 1.736C101.753 1.96 101.817 2.248 101.753 2.6L100.649 7.736C100.585 8.056 100.409 8.344 100.121 8.6C99.8654 8.824 99.5614 8.936 99.2094 8.936H90.6654L85.3854 33.8C85.3214 34.152 85.1454 34.44 84.8574 34.664C84.6014 34.888 84.2974 35 83.9454 35H77.6094ZM102.759 35C102.407 35 102.135 34.888 101.943 34.664C101.751 34.44 101.687 34.152 101.751 33.8L108.423 2.6C108.487 2.248 108.663 1.96 108.951 1.736C109.239 1.512 109.543 1.4 109.863 1.4H116.343C116.663 1.4 116.919 1.512 117.111 1.736C117.303 1.96 117.367 2.248 117.303 2.6L110.631 33.8C110.567 34.152 110.391 34.44 110.103 34.664C109.847 34.888 109.559 35 109.239 35H102.759ZM122.45 35C122.098 35 121.826 34.888 121.634 34.664C121.442 34.44 121.378 34.152 121.442 33.8L128.066 2.6C128.13 2.248 128.306 1.96 128.594 1.736C128.882 1.512 129.202 1.4 129.554 1.4H134.738C135.25 1.4 135.602 1.544 135.794 1.832C136.018 2.088 136.162 2.296 136.226 2.456L141.41 17.624L153.122 2.456C153.218 2.296 153.41 2.088 153.698 1.832C154.018 1.544 154.434 1.4 154.946 1.4H160.13C160.482 1.4 160.754 1.512 160.946 1.736C161.138 1.96 161.202 2.248 161.138 2.6L154.514 33.8C154.45 34.152 154.274 34.44 153.986 34.664C153.698 34.888 153.378 35 153.026 35H147.266C146.946 35 146.69 34.888 146.498 34.664C146.306 34.44 146.242 34.152 146.306 33.8L150.05 16.088L142.706 25.832C142.482 26.088 142.21 26.344 141.89 26.6C141.602 26.824 141.234 26.936 140.786 26.936H138.29C137.842 26.936 137.522 26.824 137.33 26.6C137.138 26.376 136.994 26.12 136.898 25.832L133.49 15.656L129.602 33.8C129.538 34.152 129.362 34.44 129.074 34.664C128.818 34.888 128.53 35 128.21 35H122.45ZM164.792 35C164.44 35 164.168 34.888 163.976 34.664C163.784 34.44 163.72 34.152 163.784 33.8L170.456 2.6C170.52 2.248 170.696 1.96 170.984 1.736C171.272 1.512 171.576 1.4 171.896 1.4H178.376C178.696 1.4 178.952 1.512 179.144 1.736C179.336 1.96 179.4 2.248 179.336 2.6L172.664 33.8C172.6 34.152 172.424 34.44 172.136 34.664C171.88 34.888 171.592 35 171.272 35H164.792ZM195.138 35.48C191.938 35.48 189.314 35.032 187.266 34.136C185.25 33.24 183.794 32.056 182.898 30.584C182.034 29.08 181.73 27.496 181.986 25.832C182.05 25.576 182.178 25.352 182.37 25.16C182.594 24.936 182.85 24.824 183.138 24.824H189.282C189.73 24.824 190.05 24.904 190.242 25.064C190.434 25.224 190.626 25.432 190.818 25.688C190.946 26.168 191.202 26.632 191.586 27.08C191.97 27.528 192.498 27.896 193.17 28.184C193.874 28.44 194.738 28.568 195.762 28.568C197.618 28.568 199.106 28.28 200.226 27.704C201.346 27.128 202.002 26.344 202.194 25.352C202.386 24.648 202.258 24.072 201.81 23.624C201.394 23.144 200.642 22.728 199.554 22.376C198.498 21.992 197.074 21.608 195.282 21.224C192.946 20.712 191.026 20.008 189.522 19.112C188.018 18.184 186.962 17.016 186.354 15.608C185.778 14.168 185.698 12.456 186.114 10.472C186.754 7.528 188.338 5.208 190.866 3.512C193.394 1.784 196.674 0.919998 200.706 0.919998C202.786 0.919998 204.626 1.208 206.226 1.784C207.858 2.36 209.218 3.128 210.306 4.088C211.394 5.048 212.178 6.072 212.658 7.16C213.138 8.216 213.298 9.256 213.138 10.28C213.106 10.536 212.978 10.776 212.754 11C212.53 11.192 212.274 11.288 211.986 11.288H205.554C205.234 11.288 204.946 11.224 204.69 11.096C204.466 10.968 204.274 10.76 204.114 10.472C204.114 9.768 203.746 9.16 203.01 8.648C202.274 8.104 201.298 7.832 200.082 7.832C198.706 7.832 197.554 8.088 196.626 8.6C195.698 9.08 195.122 9.832 194.898 10.856C194.738 11.496 194.818 12.056 195.138 12.536C195.49 13.016 196.13 13.432 197.058 13.784C198.018 14.136 199.33 14.504 200.994 14.888C203.81 15.432 206.018 16.168 207.618 17.096C209.218 17.992 210.29 19.128 210.834 20.504C211.41 21.88 211.49 23.56 211.074 25.544C210.37 28.808 208.658 31.288 205.938 32.984C203.25 34.648 199.65 35.48 195.138 35.48ZM216.983 35C216.631 35 216.359 34.888 216.167 34.664C215.975 34.44 215.911 34.152 215.975 33.8L222.599 2.6C222.663 2.248 222.839 1.96 223.127 1.736C223.415 1.512 223.735 1.4 224.087 1.4H229.271C229.783 1.4 230.135 1.544 230.327 1.832C230.551 2.088 230.695 2.296 230.759 2.456L235.943 17.624L247.655 2.456C247.751 2.296 247.943 2.088 248.231 1.832C248.551 1.544 248.967 1.4 249.479 1.4H254.663C255.015 1.4 255.287 1.512 255.479 1.736C255.671 1.96 255.735 2.248 255.671 2.6L249.047 33.8C248.983 34.152 248.807 34.44 248.519 34.664C248.231 34.888 247.911 35 247.559 35H241.799C241.479 35 241.223 34.888 241.031 34.664C240.839 34.44 240.775 34.152 240.839 33.8L244.583 16.088L237.239 25.832C237.015 26.088 236.743 26.344 236.423 26.6C236.135 26.824 235.767 26.936 235.319 26.936H232.823C232.375 26.936 232.055 26.824 231.863 26.6C231.671 26.376 231.527 26.12 231.431 25.832L228.023 15.656L224.135 33.8C224.071 34.152 223.895 34.44 223.607 34.664C223.351 34.888 223.063 35 222.743 35H216.983Z" fill="white"/>
</svg>
