<svg width="1584" height="456" viewBox="0 0 1584 456" fill="none" xmlns="http://www.w3.org/2000/svg">
<g clip-path="url(#clip0_0_3)">
<path d="M783.04 213.9C766.73 207.35 746.81 201.89 723.28 197.51H722.78C699.92 193.48 682.77 189.78 671.34 186.41C659.91 183.06 650.92 178.52 644.36 172.8C637.8 167.09 634.53 159.19 634.53 149.1C634.53 134.31 640.08 123.05 651.17 115.32C662.27 107.59 676.89 103.72 695.04 103.72C714.88 103.72 730.92 108.76 743.2 118.85C754.22 127.91 760.97 139.42 763.45 153.36C763.94 156.14 766.29 158.19 769.11 158.22L824.91 158.64C828.33 158.67 831.07 155.73 830.73 152.32C828.86 133.67 822.71 116.71 812.29 101.45C800.69 84.48 784.72 71.28 764.38 61.86C744.04 52.45 720.93 47.74 695.04 47.74C670.5 47.74 648.4 52.28 628.73 61.36C609.07 70.44 593.77 83.04 582.84 99.18C571.91 115.32 566.45 133.47 566.45 153.64C566.45 175.83 571.32 193.65 581.07 207.09C590.82 220.54 603.59 230.71 619.39 237.6C635.19 244.49 654.18 249.95 676.37 253.99L678.89 254.49C702.41 258.86 719.99 262.73 731.59 266.09C743.19 269.46 752.34 274.16 759.07 280.21C765.79 286.26 769.15 294.5 769.15 304.92C769.15 319.72 763.1 331.31 751 339.71C738.9 348.12 723.26 352.32 704.1 352.32C681.23 352.32 662.75 346.52 648.63 334.92C635.78 324.37 628.22 310.82 625.95 294.28C625.56 291.42 623.18 289.25 620.3 289.21L564.57 288.37C561.18 288.32 558.44 291.18 558.7 294.56C560.28 314.9 566.64 333.23 577.78 349.55C590.05 367.54 606.94 381.66 628.46 391.91C649.97 402.17 674.68 407.29 702.59 407.29C728.47 407.29 751.67 402.59 772.18 393.17C792.68 383.76 808.74 370.73 820.34 354.09C831.94 337.45 837.74 318.71 837.74 297.86C837.74 275.67 832.69 257.77 822.61 244.15C812.53 230.53 799.33 220.45 783.03 213.89L783.04 213.9Z" fill="white"/>
<path d="M1125.71 349.81H1117C1111.96 349.81 1108 348.47 1105.15 345.77C1102.29 343.09 1100.86 338.71 1100.86 332.66V236.34C1100.86 205.75 1091.11 182.47 1071.62 166.5C1052.12 150.54 1029.16 142.4 993.19 142.4C959.23 142.4 932.7 149.78 911.86 164.23C892.86 177.41 881.41 195.46 877.49 218.41C876.88 221.98 879.58 225.25 883.19 225.25H934.44C937.01 225.25 939.31 223.56 939.99 221.08C942.33 212.59 947.49 205.66 955.47 200.29C964.71 194.07 975.69 190.96 990.15 190.96C1017.42 190.96 1036.81 207.77 1036.81 232.81V240.64C1036.81 243.84 1034.22 246.43 1031.02 246.43H984.6C946.95 246.43 918.37 253.83 898.88 268.62C879.38 283.42 869.63 304.43 869.63 331.65C869.63 355.19 878.54 373.68 896.36 387.12C909.73 397.2 925.71 403.02 942.16 405.57C954.73 407.52 967.64 408.23 980.24 406.21C993.44 404.1 1004.16 398.66 1014.89 390.9C1024.53 383.94 1032.57 375.02 1039.91 364.14C1043.49 357.99 1052.88 360.46 1052.88 367.57V376.12C1052.87 391.66 1065.46 404.26 1081 404.26H1125.71C1128.91 404.26 1131.5 401.67 1131.5 398.47V355.59C1131.5 352.39 1128.91 349.8 1125.71 349.8V349.81ZM1036.82 297.87C1036.82 310.31 1034.21 321.15 1029 330.39C1018.08 349.77 998.54 359.89 976.55 359.89C963.77 359.89 953.52 356.87 945.79 350.82C938.05 344.77 934.19 336.7 934.19 326.61C934.19 315.19 938.48 306.36 947.05 300.14C955.62 293.93 967.8 290.81 983.61 290.81H1031.03C1034.23 290.81 1036.82 293.4 1036.82 296.6V297.87Z" fill="white"/>
<path d="M1312.54 51.43H1245.85C1210.67 51.43 1182.15 79.95 1182.15 115.13V143.12C1182.15 146.32 1179.56 148.91 1176.36 148.91H1138.28C1135.08 148.91 1132.49 151.5 1132.49 154.7V198.08C1132.49 201.28 1135.08 203.87 1138.28 203.87H1176.36C1179.56 203.87 1182.15 206.46 1182.15 209.66V398.48C1182.15 401.68 1184.74 404.27 1187.94 404.27H1239.9C1243.1 404.27 1245.69 401.68 1245.69 398.48V209.66C1245.69 206.46 1248.28 203.87 1251.48 203.87H1312.03C1315.23 203.87 1317.82 201.28 1317.82 198.08V154.7C1317.82 151.5 1315.23 148.91 1312.03 148.91H1251.48C1248.28 148.91 1245.69 146.32 1245.69 143.12V117.97C1245.69 111.57 1250.88 106.39 1257.27 106.39H1312.53C1315.73 106.39 1318.32 103.8 1318.32 100.6V57.22C1318.32 54.02 1315.73 51.43 1312.53 51.43H1312.54Z" fill="white"/>
<path d="M1567.1 201.05C1555.84 182.23 1540.45 167.77 1520.96 157.68C1501.46 147.6 1478.93 142.41 1453.39 142.41C1427.85 142.41 1405.81 148.02 1386.32 158.94C1366.82 169.87 1351.69 185.33 1340.94 205.33C1330.18 225.34 1324.8 248.78 1324.8 275.68C1324.8 302.58 1330.35 325.02 1341.44 345.02C1352.54 365.02 1368.42 380.4 1389.09 391.16C1409.76 401.92 1434.05 407.3 1461.96 407.3C1483.47 407.3 1502.72 403.35 1519.7 395.45C1536.67 387.56 1550.37 376.71 1560.79 362.93C1569.71 351.13 1575.8 338.21 1579.06 324.18C1579.91 320.54 1577.16 317.04 1573.42 317.04H1521.22C1518.72 317.04 1516.53 318.66 1515.73 321.03C1512.05 331.9 1505.56 340.49 1496.25 346.79C1485.82 353.85 1472.88 357.38 1457.42 357.38C1444.64 357.38 1433.47 354.69 1423.89 349.31C1414.31 343.94 1406.75 336.37 1401.2 326.62C1399.01 322.77 1397.22 318.7 1395.79 314.51C1394.26 310.01 1393.16 305.37 1392.4 300.67C1392.14 299.03 1391.9 297.37 1391.7 295.71C1391.31 292.29 1394.02 289.3 1397.46 289.3H1577.47C1580.39 289.3 1582.89 287.14 1583.22 284.23C1583.47 282.1 1583.64 279.93 1583.73 277.7C1583.9 273.67 1583.98 269.97 1583.98 266.61C1583.98 241.74 1578.35 219.89 1567.09 201.06L1567.1 201.05ZM1513.01 245.42H1400.27C1396.57 245.42 1393.78 241.99 1394.6 238.38C1396.4 230.47 1399.52 223.33 1403.96 216.93C1409.67 208.7 1417.07 202.39 1426.15 198.02C1435.23 193.65 1445.14 191.46 1455.9 191.46C1473.38 191.46 1487.84 196.17 1499.27 205.58C1509.08 213.66 1515.54 224.58 1518.67 238.35C1519.49 241.97 1516.72 245.42 1513.01 245.42Z" fill="white"/>
<path d="M429.06 227.76H379.64C364.88 227.76 352.92 239.72 352.92 254.48V326.21C352.92 340.97 340.96 352.93 326.2 352.93H129.59C114.83 352.93 102.87 364.89 102.87 379.65V429.07C102.87 443.83 114.83 455.79 129.59 455.79H337.58C352.34 455.79 364.13 443.83 364.13 429.07V389.42C364.13 374.66 376.09 364.19 390.85 364.19H429.05C443.81 364.19 455.77 352.23 455.77 337.47V254.17C455.77 239.41 443.81 227.76 429.05 227.76H429.06Z" fill="white"/>
<path d="M102.86 129.58C102.86 114.82 114.82 102.86 129.58 102.86H326.07C340.83 102.86 352.79 90.9 352.79 76.14V26.72C352.79 11.96 340.83 0 326.07 0H118.19C103.43 0 91.47 11.96 91.47 26.72V64.8C91.47 79.56 79.51 91.52 64.75 91.52H26.72C11.96 91.52 0 103.48 0 118.24V201.63C0 216.39 12.01 227.75 26.77 227.75H76.19C90.95 227.75 102.91 215.79 102.91 201.03L102.86 129.59V129.58Z" fill="white"/>
<path d="M204.63 175.81H252.1C267.57 175.81 280.12 188.37 280.12 203.83V251.3C280.12 266.77 267.56 279.32 252.1 279.32H204.63C189.16 279.32 176.61 266.76 176.61 251.3V203.83C176.61 188.36 189.17 175.81 204.63 175.81Z" fill="white"/>
</g>
<defs>
<clipPath id="clip0_0_3">
<rect width="1584" height="456" fill="white"/>
</clipPath>
</defs>
</svg>
