<svg width="281" height="279" viewBox="0 0 281 279" fill="none" xmlns="http://www.w3.org/2000/svg">
<path d="M205.106 81.8289L280.555 39.8015L280.617 121.457L222.168 154.011C182.301 176.22 159.328 205.349 150.043 231.216C140.761 257.073 142.126 271.902 141.828 278.365C141.828 237.198 141.963 224.887 141.963 190.225C141.963 181.684 142.945 172.288 144.097 167.79C144.097 167.79 154.02 110.287 205.106 81.8289Z" fill="#9573F5"/>
<path d="M141.794 192.002L141.833 278.365L70.4517 238.714L70.4206 171.811C70.3999 126.178 56.1178 91.9377 38.0302 71.2465C19.9478 50.5631 6.33155 44.312 0.829102 40.9079C36.4551 60.0266 45.8798 65.1845 76.2598 81.5053C83.7855 85.5466 93.5832 93.2407 96.951 96.435C96.951 96.435 141.769 133.525 141.794 192.002Z" fill="#6837F1"/>
<path d="M204.987 81.829C235.442 65.0963 257.563 52.5526 280.552 39.8016C274.76 42.7264 262.403 51.2365 235.139 55.8737C207.865 60.5135 169.527 59.5135 130.02 35.6307L72.1019 0.616089L0.829102 40.9182L78.7545 82.7435C98.1634 94.3935 146.621 113.896 204.987 81.829Z" fill="#D2C3FB"/>
</svg>
